:SAMPLES-PER-SECOND 30
:FULLY-SPECIFIED
:DEGREES
265
root  34.91628452 36.50935015 -14.89930641 8.031262398 -5.936525345 3.79224515
lowerback  -7.335110188 -0.9486910105 -0.7192504406
upperback  -3.781645536 -0.7865089774 -3.574569941
thorax  0.168569997 -0.2453839928 -3.341670036
lowerneck  -11.64589977 -1.777289987 -0.3480179906
upperneck  14.28740025 -3.023519993 5.978189945
head  6.363130093 -0.8638359904 1.710230112
lclavicle  0 -4.497500157e-015 -2.743230041e-014
lhumerus  -47.2195015 28.27020073 64.55390167
lradius  0.004719055258 -6.507048965e-006 30.57150078
lwrist  4.824992743e-007 -3.790274832e-007 -27.9178009
lhand  -0 -37.01309967 -10.31019974
lfingers  90 7.125020027 -90
lthumb  94.79084903 -25.1488318 101.1565281
rclavicle  0 -4.497500157e-015 -2.743230041e-014
rhumerus  -48.65250397 -25.5762043 -9.524457932
rradius  -5.16745672e-007 2.214343908e-008 87.08959961
rwrist  -7.499573258e-005 0.03438235447 175.3890076
rhand  -1.767212606e-031 2.476170063 -5.422440052
rfingers  -90 -7.125020027 -90
rthumb  -84.48345949 -10.26532806 -61.54421176
rfemur  -12.16986084 16.81048012 12.55883503
rtibia  -1.260433555 -1.08572948 21.07789803
rfoot  0.2081964016 -21.99313545 -35.95344925
rtoes  3.79573557 19.65100414 -101.1603105
lfemur  -7.917979717 -17.17040443 -20.76649666
ltibia  2.187670469 -1.527992606 15.18420982
lfoot  0.8753702641 -22.87290955 38.28748322
ltoes  -8.647682594 -18.10321961 -116.0794996
266
root  34.91347005 36.51028731 -14.89500061 8.049153328 -5.881011963 3.777570009
lowerback  -7.302339554 -0.9441350102 -0.7048662901
upperback  -3.782660007 -0.7837610245 -3.563819885
thorax  0.1483290046 -0.2447600067 -3.33791995
lowerneck  -11.68120003 -1.591310024 -0.2324479967
upperneck  14.28520012 -2.772880077 5.844190121
head  6.356379986 -0.7489359379 1.670510054
lclavicle  0 -4.497500157e-015 -2.743230041e-014
lhumerus  -47.26499939 28.24180031 64.56710052
lradius  0.004719055258 -6.507048965e-006 30.59700203
lwrist  4.824992743e-007 -3.790274832e-007 -27.88459969
lhand  -4.419710171e-031 -36.9701004 -10.3178997
lfingers  90 7.125020027 -90
lthumb  94.77266698 -25.15798234 101.1113659
rclavicle  0 -4.497500157e-015 -2.743230041e-014
rhumerus  -49.21459961 -25.1167984 -10.00460052
rradius  -5.16745672e-007 2.214343908e-008 88.19940186
rwrist  -7.499573258e-005 0.03438235447 174.8420105
rhand  -0 2.550580025 -5.169179916
rfingers  -90 -7.125020027 -90
rthumb  -84.34203449 -10.49110678 -61.44912971
rfemur  -12.17578125 16.8253212 12.57980347
rtibia  -1.251507759 -1.046653152 21.08206558
rfoot  0.2131674439 -21.93178749 -35.97527313
rtoes  3.810449628 19.64826482 -101.2040675
lfemur  -7.882121563 -17.1645565 -20.76146507
ltibia  2.220234632 -1.491106868 15.11643028
lfoot  0.8558632135 -22.90171051 38.23226929
ltoes  -8.666422234 -18.09448966 -116.1398222
267
root  34.91144255 36.50989983 -14.89119342 8.036612511 -5.84021759 3.759412527
lowerback  -7.311481476 -0.942717135 -0.7109550238
upperback  -3.783070087 -0.780377984 -3.5615201
thorax  0.1532869935 -0.2419563085 -3.331929922
lowerneck  -11.75769997 -1.363010049 -0.02443549968
upperneck  14.30539989 -2.479279995 5.69423008
head  6.362110138 -0.6076899767 1.614420056
lclavicle  0 -4.497500157e-015 -2.743230041e-014
lhumerus  -47.30070114 28.23200035 64.55059814
lradius  0.004719055258 -6.507048965e-006 30.62210083
lwrist  4.824992743e-007 -3.790274832e-007 -27.86269951
lhand  -4.421889538e-031 -37.00759888 -10.36359978
lfingers  90 7.125020027 -90
lthumb  94.79973984 -25.2014694 101.1555299
rclavicle  0 -4.497500157e-015 -2.743230041e-014
rhumerus  -49.7519989 -24.57629967 -10.61160183
rradius  -5.16745672e-007 2.214343908e-008 89.43289948
rwrist  -7.499573258e-005 0.03438235447 174.4260101
rhand  -1.767489847e-031 2.675940037 -5.194749832
rfingers  -90 -7.125020027 -90
rthumb  -84.32283054 -10.47408853 -61.32831348
rfemur  -12.13107014 16.84222221 12.60711861
rtibia  -1.236899734 -1.024908781 21.04725647
rfoot  0.2147807181 -21.90458107 -36.01899338
rtoes  3.821741886 19.64615504 -101.2376527
lfemur  -7.816225052 -17.12800598 -20.75632858
ltibia  2.256217241 -1.433736801 15.05617523
lfoot  0.8837627172 -22.9922924 38.25966263
ltoes  -8.653079154 -18.10070802 -116.0968682
268
root  34.90894348 36.50966855 -14.8862208 8.031194687 -5.786986828 3.751078844
lowerback  -7.269539833 -0.931910038 -0.6827972531
upperback  -3.79847002 -0.7705249786 -3.551429987
thorax  0.1144099981 -0.2383043766 -3.336009979
lowerneck  -11.7269001 -1.164520025 0.1855760068
upperneck  14.22109985 -2.218100071 5.518249989
head  6.317699909 -0.4894120097 1.546239972
lclavicle  0 -4.497500157e-015 -2.743230041e-014
lhumerus  -47.36360168 28.28350067 64.51699829
lradius  0.004719055258 -6.507048965e-006 30.6142025
lwrist  4.824992743e-007 -3.790274832e-007 -27.94210052
lhand  -4.422675145e-031 -37.02109909 -10.36310005
lfingers  90 7.125020027 -90
lthumb  94.80587906 -25.20057739 101.1698657
rclavicle  0 -4.497500157e-015 -2.743230041e-014
rhumerus  -50.22850037 -24.04939842 -11.17260265
rradius  -5.16745672e-007 2.214343908e-008 90.55639648
rwrist  -7.499573258e-005 0.03438235447 174.1040039
rhand  -1.767628974e-031 2.770750046 -5.212379932
rfingers  -90 -7.125020027 -90
rthumb  -84.3074923 -10.46274531 -61.23687187
rfemur  -12.08306503 16.79109573 12.62512493
rtibia  -1.223974943 -1.044692755 21.00676918
rfoot  0.208621785 -21.96250725 -36.05072403
rtoes  3.793811613 19.65136151 -101.1545895
lfemur  -7.774294853 -17.09086227 -20.75891876
ltibia  2.288334846 -1.405405641 15.01037121
lfoot  0.8704106808 -23.02104759 38.18271255
ltoes  -8.64070059 -18.10646615 -116.0570319
269
root  34.90664865 36.50973162 -14.88208921 8.033459663 -5.737806797 3.742681026
lowerback  -7.223490238 -0.9216459394 -0.6478558183
upperback  -3.813030005 -0.7617980242 -3.538899899
thorax  0.07399729639 -0.2352540046 -3.341379881
lowerneck  -11.72999954 -0.9938420057 0.2398220003
upperneck  14.17940044 -1.991549969 5.502419949
head  6.297780037 -0.3801180124 1.552049994
lclavicle  0 -4.497500157e-015 -2.743230041e-014
lhumerus  -47.41939926 28.34740067 64.4673996
lradius  0.004719055258 -6.507048965e-006 30.58010101
lwrist  4.824992743e-007 -3.790274832e-007 -28.01840019
lhand  -4.419541843e-031 -36.96720123 -10.38029957
lfingers  90 7.125020027 -90
lthumb  94.78460285 -25.2192499 101.1139209
rclavicle  0 -4.497500157e-015 -2.743230041e-014
rhumerus  -50.79150009 -23.58979797 -11.7166996
rradius  -5.16745672e-007 2.214343908e-008 91.55220032
rwrist  -7.499573258e-005 0.03438235447 173.7940063
rhand  -1.767612612e-031 2.759769917 -5.35367012
rfingers  -90 -7.125020027 -90
rthumb  -84.37934459 -10.33840874 -61.26012046
rfemur  -12.05791378 16.76120567 12.64921856
rtibia  -1.218574166 -1.028225899 20.98345757
rfoot  0.2295028865 -21.92839241 -36.03930283
rtoes  3.789500055 19.65216168 -101.141769
lfemur  -7.776878357 -17.15984726 -20.75051117
ltibia  2.28539443 -1.433593392 15.02349091
lfoot  0.8445205688 -22.9576683 38.13198471
ltoes  -8.627379233 -18.1126513 -116.0141752
